<svg width="88" height="48" viewBox="0 0 88 48" fill="none" xmlns="http://www.w3.org/2000/svg">
<path d="M16.8799 26.0173H6.32702V29.3139H18.125L17.3875 33.8736H0V14.1245H17.4405V18.6944H6.32702V21.4474H16.8799V26.0173Z" fill="#D8AF6E"/>
<path d="M26.8872 27.9324C27.3022 29.2384 28.3184 30.2196 30.8909 30.2196C33.1714 30.2196 33.8808 29.5339 33.8808 28.5493C33.8808 27.5015 33.2469 26.8869 29.5443 26.2418C22.2496 24.9651 21.1997 22.4749 21.1997 19.8753C21.1997 15.9708 24.8752 13.6926 30.2718 13.6926C36.8367 13.6926 39.4769 16.7287 39.7307 19.6497H33.4917C33.2684 18.7712 32.7101 17.7606 30.2605 17.7606C28.5225 17.7606 27.6992 18.3257 27.6992 19.2516C27.6992 20.1775 28.5237 20.5903 31.5879 21.1475C39.0518 22.4839 40.4965 24.8275 40.4965 27.7982C40.4965 31.5662 37.3285 34.3067 30.6214 34.3067C23.9143 34.3067 21.0497 31.4985 20.4609 27.9312H26.8872V27.9324Z" fill="#D8AF6E"/>
<path d="M65.3407 23.9543C65.3407 29.5302 61.6595 34.3256 53.8946 34.3256C46.7725 34.3256 42.833 29.7783 42.833 23.9825C42.833 18.5431 46.6495 13.6743 54.1867 13.6743C61.3156 13.6743 65.3407 18.3547 65.3407 23.9543ZM49.5987 23.8866C49.5987 27.3219 50.9656 29.8674 54.2025 29.8674C57.4393 29.8674 58.5739 26.9565 58.5739 24.0005C58.5739 20.572 57.3637 18.0525 54.0265 18.0525C50.6893 18.0525 49.5999 20.6622 49.5999 23.8866H49.5987Z" fill="#D8AF6E"/>
<path d="M67.6768 33.8747V14.1245H75.1564C79.5312 21.1981 81.0086 23.7639 82.2819 26.3071H82.3879C82.2108 24.4496 82.2199 20.8778 82.2199 17.6106V14.1245H87.9999V33.8747H80.933C79.3936 31.1308 74.5384 22.7229 73.3654 20.3184H73.2696C73.4579 22.5752 73.4681 25.1962 73.4681 29.0714V33.8747H67.679H67.6768Z" fill="#D8AF6E"/>
</svg>
