<svg width="48" height="48" viewBox="0 0 48 48" fill="none" xmlns="http://www.w3.org/2000/svg">
<g clip-path="url(#clip0_1648_1974)">
<path d="M42.5275 9.02048C40.3055 7.0458 37.7857 6.37164 34.8965 7.2442C33.0706 7.79548 31.469 8.76874 29.9464 9.87854C27.4443 11.7022 25.2094 13.8245 22.9839 15.957C22.9839 15.957 22.9839 15.957 22.9835 15.957C22.5981 16.3266 22.2128 16.6961 21.8261 17.0647C21.7995 17.0899 21.7819 17.1253 21.7462 17.1897C20.4084 18.5334 18.2611 20.7239 16.7115 22.4652C16.7029 22.475 16.6943 22.4849 16.6857 22.4942C16.1688 23.0758 15.7199 23.6066 15.3921 24.0367C15.2585 24.1899 15.1227 24.3409 14.9831 24.489C14.1999 25.3172 13.543 25.3615 12.6799 24.6417C12.203 24.2441 11.7704 23.7828 11.3725 23.3058C10.6173 22.3999 10.5666 21.7672 11.2192 20.7845C11.7592 19.9713 12.3413 19.1785 12.9737 18.4348C15.4509 15.5223 18.2151 12.8849 21.0287 10.2997C24.4679 7.13924 28.0307 4.13071 32.0623 1.71697C32.0988 1.69521 32.1194 1.64785 32.1671 1.58811C31.2559 1.13924 30.3223 1.10297 29.3767 1.28389C27.5448 1.63419 26.0111 2.60532 24.5628 3.6972C21.1658 6.25772 18.0364 9.11947 15.0742 12.163C14.709 12.538 14.3524 12.9221 13.9722 13.2813C13.6547 13.5813 13.2736 13.6854 12.8479 13.5079C11.5775 12.9792 11.3674 12.1728 12.2279 11.1266C12.2709 11.0745 12.3156 11.0238 12.3602 10.9734C15.0136 8.00327 18.0424 5.43081 21.0962 2.88736C22.1934 1.9734 23.3422 1.12047 24.4807 0.229555C24.3196 0.148485 24.1718 0.0742426 24.0245 0H23.0059C21.1984 0.602901 19.757 1.77841 18.3367 2.97312C17.3542 3.7996 16.4159 4.67729 15.4638 5.53918C15.1695 5.80543 14.8946 6.02475 14.4933 5.709C14.0349 5.34803 13.9623 5.0741 14.385 4.67131C15.338 3.76291 16.3196 2.88352 17.3125 2.01821C17.9329 1.4776 18.5958 0.984782 19.2858 0.433935C19.1685 0.433935 19.1169 0.424975 19.0692 0.435216C12.371 1.84711 7.10896 5.3668 3.38285 11.0681C2.61597 12.2415 1.89506 13.5117 1.49165 14.8387C0.546909 17.9458 1.22271 20.7248 3.72783 22.9516C4.84915 23.9484 6.12942 24.7015 7.47973 25.3453C10.5313 26.8007 13.7737 27.716 17.0079 28.6542C17.4135 28.772 17.8207 28.8838 18.2474 29.0007C18.2568 29.0033 25.7464 31.1567 28.2481 31.2203C28.4749 31.2685 28.7005 31.3227 28.9192 31.3957C29.6702 31.6457 30.0736 32.2013 29.9223 32.933C29.7535 33.7488 29.5082 34.5565 29.21 35.3357C28.9299 36.0683 28.3065 36.4301 27.5208 36.3917C26.6095 36.3473 25.6815 36.3268 24.7961 36.1348C22.1217 35.5545 19.4439 34.9717 16.8055 34.2523C12.0032 32.9424 7.26706 31.423 2.74958 29.3084C1.83535 28.8804 0.942162 28.4089 0 27.9383C0.0571398 28.8117 0.361312 29.5464 0.857097 30.2052C1.74341 31.3829 2.9528 32.1577 4.24682 32.808C7.22195 34.3027 10.3986 35.2725 13.5739 36.2296C15.3693 36.7706 17.2038 37.1828 19.0172 37.6662C19.9714 37.9209 20.2472 38.4009 20.032 39.3614C20.0028 39.4924 19.9693 39.623 19.9302 39.7514C19.7901 40.2109 19.4894 40.478 18.9927 40.423C18.4385 40.3611 17.8796 40.2971 17.3396 40.1657C12.493 38.9885 7.78648 37.3931 3.19124 35.4688C3.02927 35.4009 2.86816 35.3318 2.63659 35.2333C2.75388 36.1566 3.22475 36.7663 3.89925 37.1849C4.67214 37.6641 5.46952 38.1372 6.31545 38.4594C8.08378 39.1327 9.89163 39.7045 11.6823 40.321C12.0256 40.4392 12.4406 40.4797 12.4513 40.9854C12.4655 41.6535 12.1446 41.9219 11.4172 41.6941C9.44869 41.0784 7.49648 40.411 5.49272 39.7493C5.99151 40.26 6.47742 40.7959 7.00328 41.2904C12.2421 46.2165 18.4871 48.3806 25.6695 47.9471C26.0729 47.9228 26.4811 47.8639 26.8716 47.7623C30.1994 46.8966 32.3093 44.8699 32.94 41.4496C33.2923 39.5402 33.2519 37.6124 32.9147 35.7252C32.4129 32.9159 31.7693 30.1318 31.1725 27.3396C31.1665 27.3017 30.1621 21.1779 27.7038 16.088C27.434 15.1165 27.6986 14.5635 28.6365 14.1995C29.2139 13.9755 29.8274 13.8096 30.4396 13.7148C31.8299 13.5002 32.3373 13.7626 32.9542 15.0128C33.3555 15.8261 33.7236 16.6606 34.033 17.5119C35.4172 21.3247 36.3787 25.2562 37.2646 29.2034C38.1745 33.2564 38.9264 37.3368 39.0411 41.5055C39.0488 41.7931 39.0944 42.0798 39.1279 42.4245C40.11 41.7517 40.6199 40.8599 40.9104 39.8329C41.3872 38.1462 41.3658 36.4139 41.0758 34.7247C40.531 31.5506 39.8784 28.3935 39.2018 25.2438C38.8886 23.7862 38.4074 22.365 38.0147 20.9236C37.8781 20.4214 38.0761 20.0387 38.5178 19.7703C39.7096 19.0467 40.2994 19.2485 40.7939 20.5511C40.812 20.5985 40.8322 20.6446 40.8481 20.6924C42.2667 24.9677 43.0688 29.3796 43.7966 33.8073C43.9396 34.6781 44.0354 35.5567 44.1596 36.4787C44.7168 36.1613 44.9939 35.6847 45.076 35.1603C45.1946 34.4025 45.3325 33.6072 45.2216 32.863C44.8818 30.5735 44.432 28.2997 44.0144 26.0216C43.9134 25.4699 44.0342 25.2677 44.5854 25.0953C45.0721 24.9434 45.2259 25.2344 45.3436 25.6005C45.4102 25.8083 45.494 26.0135 45.5361 26.2264C45.9103 28.1017 46.2772 29.9782 46.6398 31.8228C46.6046 31.8497 46.6433 31.8356 46.6531 31.8104C46.7146 31.6542 46.776 31.4977 46.8254 31.3372C48.812 24.9221 48.29 18.7198 45.1739 12.7569C44.4655 11.4014 43.7046 10.0663 42.5283 9.02091L42.5275 9.02048Z" fill="#D8AF6E"/>
</g>
<defs>
<clipPath id="clip0_1648_1974">
<rect width="48" height="48" fill="white"/>
</clipPath>
</defs>
</svg>
