<svg width="88" height="48" viewBox="0 0 88 48" fill="none" xmlns="http://www.w3.org/2000/svg">
<g clip-path="url(#clip0_1648_1929)">
<path d="M3.33054 16.7559H0V31.2441H3.33054V16.7559Z" fill="#D8AF6E"/>
<path d="M8.67526 16.7559H4.99609V20.3641H8.67526V16.7559Z" fill="#D8AF6E"/>
<path d="M8.67526 22.1958H4.99609V25.804H8.67526V22.1958Z" fill="#D8AF6E"/>
<path d="M8.67526 27.636H4.99609V31.2442H8.67526V27.636Z" fill="#D8AF6E"/>
<path d="M13.338 31.2441H10.8955V21.1411H18.8337C19.9679 21.1411 20.8875 22.0607 20.8875 23.1949V31.2441H18.5252V23.2197H13.3625L13.3376 31.2441H13.338Z" fill="#D8AF6E"/>
<path d="M24.6066 31.2441H22.1641V21.1411H30.1023C31.2364 21.1411 32.156 22.0607 32.156 23.1949V31.2441H29.7937V23.2197H24.631L24.6062 31.2441H24.6066Z" fill="#D8AF6E"/>
<path d="M69.0157 31.2441H66.5732V21.1411H74.5114C75.6456 21.1411 76.5652 22.0607 76.5652 23.1949V31.2441H74.2029V23.2197H69.0402L69.0154 31.2441H69.0157Z" fill="#D8AF6E"/>
<path d="M80.4503 31.2441H78.0078V21.1411H85.946C87.0802 21.1411 87.9998 22.0607 87.9998 23.1949V31.2441H85.6375V23.2197H80.4748L80.4499 31.2441H80.4503Z" fill="#D8AF6E"/>
<path d="M54.6938 28.7464V31.1889H46.839C45.5973 31.1889 44.5908 30.1824 44.5908 28.9408V23.2511C44.5908 22.1169 45.5104 21.1973 46.6446 21.1973H54.6938V23.5596H47.0333V28.7223L54.6938 28.7471V28.7464Z" fill="#D8AF6E"/>
<path d="M41.5375 21.072H35.2094C34.2898 21.072 33.5439 21.8175 33.5439 22.7375V29.5099C33.5439 30.4295 34.2894 31.1754 35.2094 31.1754H41.5375C42.4571 31.1754 43.2029 30.4299 43.2029 29.5099V22.7375C43.2029 21.8179 42.4574 21.072 41.5375 21.072ZM40.8714 29.0375H35.8754V23.2088H40.8714V29.0375Z" fill="#D8AF6E"/>
<path d="M63.7972 21.072H57.4692C56.5495 21.072 55.8037 21.8175 55.8037 22.7375V29.5099C55.8037 30.4295 56.5492 31.1754 57.4692 31.1754H63.7972C64.7168 31.1754 65.4627 30.4299 65.4627 29.5099V22.7375C65.4627 21.8179 64.7172 21.072 63.7972 21.072ZM63.1312 29.0375H58.1352V23.2088H63.1312V29.0375Z" fill="#D8AF6E"/>
</g>
<defs>
<clipPath id="clip0_1648_1929">
<rect width="88" height="14.4883" fill="white" transform="translate(0 16.7559)"/>
</clipPath>
</defs>
</svg>
