<svg width="64" height="48" viewBox="0 0 64 48" fill="none" xmlns="http://www.w3.org/2000/svg">
<path d="M29.1954 43.7097V44.9985C29.1936 45.3654 29.3374 45.7189 29.5948 45.9797C29.8521 46.2414 30.2036 46.3899 30.5701 46.3943H33.4705V45.5351H30.721C30.7041 45.5351 30.6864 45.5333 30.6704 45.5271C30.6544 45.5209 30.6402 45.5112 30.6278 45.4988C30.6154 45.4865 30.6065 45.4723 30.6003 45.4564C30.5941 45.4405 30.5914 45.4228 30.5914 45.406V43.388C30.5914 43.3022 30.634 43.2377 30.721 43.2377H33.4705V42.3361H30.5701C30.3891 42.3334 30.2089 42.3679 30.0412 42.436C29.8734 42.504 29.7208 42.6057 29.593 42.7339C29.4652 42.862 29.364 43.0141 29.2957 43.182C29.2273 43.35 29.1936 43.5294 29.1954 43.7106V43.7097Z" fill="#D8AF6E"/>
<path d="M28.8732 42.3134H27.2402L26.5959 43.0647C26.5133 43.1469 26.4015 43.1938 26.2843 43.1938C26.1672 43.1938 26.0554 43.1478 25.9728 43.0647L25.3285 42.3134H23.7168L25.2202 44.0309C25.2619 44.0724 25.2948 44.1211 25.317 44.1759C25.3383 44.2307 25.3489 44.289 25.3471 44.3473C25.3454 44.4057 25.3312 44.4631 25.3054 44.5162C25.2797 44.5692 25.2442 44.6161 25.1998 44.6541L23.7177 46.3937H25.3294L25.9737 45.6423C26.0616 45.5672 26.1743 45.5283 26.2897 45.5327C26.405 45.5362 26.5142 45.584 26.5967 45.6644L27.2411 46.4158H28.8741L27.3698 44.6753C27.3289 44.6346 27.2961 44.586 27.2739 44.5321C27.2517 44.479 27.2402 44.4216 27.2402 44.3633C27.2402 44.3049 27.2517 44.2483 27.2739 44.1944C27.2961 44.1414 27.3281 44.0928 27.3698 44.0512L28.8741 42.3125L28.8732 42.3134Z" fill="#D8AF6E"/>
<path d="M21.9555 42.3132H19.8069C18.9691 42.3132 18.2812 42.9363 18.2812 43.7098V44.9977C18.2812 45.7703 18.9691 46.3935 19.8069 46.3935H21.912C22.0984 46.3988 22.2848 46.3661 22.4578 46.298C22.6318 46.229 22.7898 46.1265 22.922 45.9948C23.0542 45.8631 23.159 45.7066 23.2291 45.5334C23.2992 45.3601 23.3329 45.1745 23.3294 44.988V43.6904C23.3356 43.5083 23.3045 43.3262 23.238 43.1564C23.1714 42.9867 23.0702 42.832 22.9415 42.703C22.8128 42.5739 22.6584 42.4723 22.4889 42.4051C22.3194 42.3379 22.1375 42.3061 21.9546 42.3123L21.9555 42.3132ZM21.912 45.361C21.9085 45.3981 21.8907 45.4317 21.8623 45.4556C21.8339 45.4795 21.7984 45.4918 21.7612 45.4901H19.806C19.7687 45.4918 19.7332 45.4795 19.7048 45.4556C19.6764 45.4317 19.6595 45.3972 19.656 45.361V43.343C19.656 43.3235 19.6595 43.3032 19.6666 43.2846C19.6737 43.2661 19.6853 43.2493 19.6995 43.2351C19.7137 43.221 19.7305 43.2104 19.7483 43.2024C19.7669 43.1953 19.7865 43.1918 19.806 43.1918H21.7825C21.8685 43.1918 21.9333 43.2351 21.9333 43.3209L21.912 45.3601V45.361Z" fill="#D8AF6E"/>
<path d="M13.4043 43.6869V46.4139H14.779V45.1463C14.7764 45.103 14.7826 45.0606 14.7986 45.0199C14.8137 44.9793 14.8376 44.943 14.8678 44.913C14.898 44.8829 14.9352 44.8591 14.9752 44.844C15.0151 44.829 15.0586 44.8219 15.1012 44.8246H17.4646V44.1157H14.9077C14.8713 44.1121 14.8367 44.0944 14.8128 44.0662C14.7888 44.0379 14.7764 44.0016 14.7782 43.9645V43.3634C14.7764 43.3263 14.7888 43.29 14.8128 43.2626C14.8367 43.2344 14.8705 43.2167 14.9077 43.2131H17.6794V42.3115H14.693C13.9838 42.3115 13.4043 42.9126 13.4043 43.6861V43.6869Z" fill="#D8AF6E"/>
<path d="M43.4177 42.3135H39.7656V46.3938H41.1404V43.3442C41.1404 43.3274 41.1421 43.3097 41.1492 43.2938C41.1555 43.2779 41.1652 43.2637 41.1768 43.2513C41.1892 43.239 41.2034 43.2301 41.2194 43.2239C41.2353 43.2178 41.2522 43.2151 41.2699 43.216H43.289C43.3227 43.2178 43.3538 43.2319 43.3778 43.2558C43.4017 43.2796 43.4159 43.3106 43.4186 43.3442V46.3938H44.7933V43.688C44.78 43.3274 44.6309 42.9853 44.3753 42.7307C44.1206 42.4761 43.778 42.3267 43.4177 42.3135Z" fill="#D8AF6E"/>
<path d="M49.1111 42.2919H45.459V46.3722H46.8337V43.3438C46.8355 43.3102 46.8506 43.2784 46.8737 43.2545C46.8976 43.2307 46.9287 43.2165 46.9624 43.2139H48.9815C49.0152 43.2156 49.0463 43.2307 49.0702 43.2545C49.0942 43.2784 49.1084 43.3102 49.1111 43.3438V46.3934H50.4858V43.6656C50.476 43.304 50.3278 42.9602 50.0722 42.7038C49.8166 42.4484 49.4723 42.3007 49.1102 42.291L49.1111 42.2919Z" fill="#D8AF6E"/>
<path d="M37.7437 42.3132H35.5959C34.7581 42.3132 34.0703 42.9355 34.0703 43.7089V44.9977C34.0703 45.7712 34.7581 46.3935 35.5959 46.3935H37.7011C37.8875 46.3988 38.0738 46.3661 38.2469 46.298C38.4209 46.229 38.5788 46.1265 38.7111 45.9948C38.8433 45.8631 38.948 45.7066 39.0181 45.5334C39.0883 45.3601 39.122 45.1745 39.1175 44.988V43.6904C39.1238 43.5083 39.0927 43.3262 39.0261 43.1564C38.9596 42.9867 38.8584 42.832 38.7297 42.703C38.601 42.5739 38.4466 42.4723 38.2771 42.4051C38.1076 42.3379 37.9256 42.3061 37.7428 42.3123L37.7437 42.3132ZM37.5715 43.1927C37.6576 43.1927 37.7215 43.236 37.7215 43.3217L37.7073 45.361C37.7038 45.3981 37.686 45.4317 37.6576 45.4556C37.6301 45.4795 37.5937 45.4918 37.5564 45.4901H35.595C35.5587 45.4918 35.5223 45.4795 35.4939 45.4556C35.4664 45.4317 35.4486 45.3981 35.4442 45.361V43.3421C35.4442 43.3226 35.4468 43.3023 35.4548 43.2837C35.4628 43.2652 35.4735 43.2484 35.4877 43.2342C35.5019 43.2201 35.5187 43.2095 35.5374 43.2015C35.556 43.1945 35.5755 43.1909 35.5959 43.1909H37.5724L37.5715 43.1927Z" fill="#D8AF6E"/>
<path fill-rule="evenodd" clip-rule="evenodd" d="M35.8022 1.58398V12.6103H28.3632V1.58398H13.4877L13.4043 38.4251H28.2806V27.3147H35.6345L35.7161 38.3411H50.5943V1.58398H35.8022ZM46.8339 21.966V34.6656H39.4774V27.2317C39.4774 27.2317 39.4774 27.2308 39.4774 27.2299C39.425 26.3141 39.0354 25.4505 38.3849 24.8035C38.3769 24.7955 38.3698 24.7875 38.3618 24.7805C38.3201 24.7398 38.2775 24.7 38.2349 24.662C37.5888 24.0875 36.7616 23.7542 35.8945 23.7233C35.891 23.7233 35.8883 23.7233 35.8848 23.7233H28.3632C28.3401 23.7233 28.3161 23.725 28.2931 23.725C26.3982 23.7648 24.6046 25.4143 24.6028 27.229C24.6028 27.2299 24.6028 27.2317 24.6028 27.2325V34.7514H17.1655V5.25854H24.6028V16.2849H41.2355C43.914 16.2849 46.833 19.2859 46.8348 21.9633C46.8348 21.9633 46.8339 21.9651 46.8339 21.966Z" fill="#D8AF6E"/>
<path d="M54.6055 0.977568H56.6556C56.9414 0.968728 57.2263 1.01823 57.4916 1.1243C57.6913 1.21093 57.8591 1.35766 57.9709 1.54418C58.0827 1.73069 58.1333 1.94814 58.1155 2.16471C58.1262 2.39188 58.0685 2.61729 57.9496 2.81175C57.8315 2.98501 57.67 3.12467 57.4819 3.2166C57.6363 3.27141 57.7739 3.36687 57.8795 3.49239C57.9842 3.65769 58.0366 3.85039 58.0303 4.04574L58.0508 4.6371C58.0525 4.76351 58.0667 4.88903 58.0934 5.01278C58.1031 5.06935 58.1262 5.12327 58.1599 5.17012C58.1936 5.21697 58.238 5.25498 58.2895 5.2815V5.37873H57.5387C57.5147 5.33277 57.4978 5.28327 57.4881 5.232C57.4712 5.11708 57.4615 5.0004 57.4579 4.88461L57.4215 4.15093C57.4286 4.03425 57.4029 3.91757 57.3461 3.81415C57.2893 3.71161 57.205 3.62675 57.102 3.57106C56.9325 3.5083 56.7515 3.48178 56.5704 3.49151H55.217V5.37873H54.6064V0.977568H54.6055ZM56.5908 2.99562C56.8233 3.00799 57.0541 2.94965 57.252 2.82767C57.339 2.75518 57.4073 2.66148 57.4499 2.55629C57.4925 2.4511 57.5076 2.33708 57.4952 2.22393C57.5085 2.09487 57.4836 1.96493 57.4233 1.85091C57.3629 1.73688 57.2689 1.64229 57.1553 1.5813C57.0026 1.51501 56.8358 1.48407 56.6689 1.49114H55.2161V2.99562H56.5917H56.5908Z" fill="#D8AF6E"/>
<path d="M56.1794 6.35828C55.5501 6.35828 54.9351 6.17177 54.4123 5.82173C53.8896 5.47257 53.4822 4.97579 53.2417 4.39504C53.0012 3.81429 52.9382 3.1752 53.0616 2.5582C53.184 1.94121 53.4876 1.37548 53.9322 0.93086C54.3768 0.486236 54.944 0.183927 55.5608 0.0610583C56.1776 -0.0618101 56.8175 0.001834 57.3988 0.242267C57.9801 0.4827 58.4762 0.890199 58.8259 1.41349C59.1756 1.93591 59.362 2.55113 59.362 3.17962C59.3611 4.0229 59.0256 4.83083 58.4292 5.42749C57.8328 6.02327 57.0243 6.35828 56.1803 6.35917L56.1794 6.35828ZM56.1794 0.226356C55.5954 0.226356 55.0238 0.399609 54.5384 0.724017C54.0529 1.04843 53.6739 1.50984 53.4503 2.04905C53.2266 2.58826 53.1681 3.18227 53.2826 3.75507C53.397 4.32786 53.6784 4.85381 54.0911 5.26661C54.5046 5.67941 55.0309 5.96051 55.6034 6.07454C56.1767 6.18857 56.7704 6.13023 57.31 5.90659C57.8496 5.68295 58.3112 5.30462 58.636 4.81845C58.9608 4.33317 59.1339 3.76214 59.1339 3.17785C59.133 2.39467 58.8215 1.6442 58.2677 1.09085C57.7139 0.537505 56.963 0.226356 56.1803 0.225472L56.1794 0.226356Z" fill="#D8AF6E"/>
</svg>
