<svg width="48" height="48" viewBox="0 0 48 48" fill="none" xmlns="http://www.w3.org/2000/svg">
<g clip-path="url(#clip0_1648_1952)">
<path d="M18.7151 6H12.2694C10.3183 6 8.37641 6.3293 6.55218 7.01627C4.11919 7.93121 1.5 9.60811 1.5 12.5819V42.001H8.22601V24.7934H12.9498C12.9498 24.7934 11.2688 23.2077 11.2688 21.4629C11.2688 19.7181 12.9498 17.9956 12.9498 17.9956H8.30581V13.89C8.30581 12.817 9.18365 11.9476 10.2671 11.9476H14.7106C14.7106 11.9476 16.632 8.6962 18.3938 7.50667C18.5626 7.15913 18.7151 6 18.7151 6Z" fill="#D8AF6E"/>
<path d="M13.9102 25.4277V42.0011H21.2766V25.4277C21.2766 25.4277 20.1502 26.6963 17.5504 26.6963C14.9507 26.6963 13.9102 25.4277 13.9102 25.4277Z" fill="#D8AF6E"/>
<path d="M22.2383 17.9957C22.2383 17.9957 23.6799 18.7667 23.6799 21.542C23.6799 24.3172 22.2383 24.8725 22.2383 24.8725H26.562V39.3839C26.562 40.8288 27.7447 42.0011 29.2047 42.0011H36.4914V35.4992H34.1689C33.3729 35.4992 32.7273 34.8598 32.7273 34.0716V24.4763H36.4904V17.9957H33.288V12.8191H30.325C30.325 12.8191 29.8155 15.2042 27.0848 17.0341C26.1364 17.6694 25.0099 17.9957 23.865 17.9957H22.2383Z" fill="#D8AF6E"/>
<path d="M46.5001 17.9956H38.4932V24.7934H46.5001V17.9956Z" fill="#D8AF6E"/>
<path d="M46.5001 26.458H38.4932V41.9999H46.5001V26.458Z" fill="#D8AF6E"/>
<path d="M17.7436 25.4276C20.2146 25.4276 22.2178 23.6702 22.2178 21.5024C22.2178 19.3345 20.2146 17.5771 17.7436 17.5771C15.2727 17.5771 13.2695 19.3345 13.2695 21.5024C13.2695 23.6702 15.2727 25.4276 17.7436 25.4276Z" fill="#D8AF6E"/>
</g>
<defs>
<clipPath id="clip0_1648_1952">
<rect width="45" height="36" fill="white" transform="translate(1.5 6)"/>
</clipPath>
</defs>
</svg>
