<svg width="48" height="48" viewBox="0 0 48 48" fill="none" xmlns="http://www.w3.org/2000/svg">
<g clip-path="url(#clip0_1648_1947)">
<path d="M47.9994 27.3255L47.9967 26.9409L42.8857 23.931L47.9255 20.9496L47.9316 20.5698C47.9973 16.4793 46.0599 14.3953 45.9772 14.3085L45.7705 14.0908L40.3702 14.2217L43.0104 9.53219L42.9595 9.28391C42.4513 6.79637 38.9565 4.81556 38.8075 4.73212L38.472 4.54421L33.5738 7.36347V1.7989L33.2662 1.5981C30.6768 -0.0923688 27.5927 -0.00282534 27.4626 0.00192318L27.0899 0.0154904L23.978 5.34943L20.9502 0.26784L20.7096 0.188472C18.3005 -0.605886 14.8471 1.44683 14.7014 1.53501L14.3721 1.7331L14.3836 7.43674L9.50911 4.66089L9.18247 4.82913C6.43384 6.24622 4.98702 8.9739 4.9267 9.0899L4.7539 9.42094L7.63738 14.4035L1.95241 14.3316L1.74844 14.5487C-0.120576 16.5376 -0.00266188 20.4979 0.00343714 20.6654L0.0169905 21.0419L5.11916 23.9772L0.0874681 26.9538L0.0712041 27.3208C-0.0650075 30.4128 1.58105 33.0251 1.65153 33.1343L1.8528 33.4491L7.65365 33.4186L4.75525 38.3713L4.84267 38.6562C5.64436 41.2658 9.14181 43.1218 9.29022 43.1991L9.62363 43.3735L14.3985 40.5603V46.0788L14.7217 46.2775C16.9106 47.6207 18.821 47.8791 19.9676 47.8791C20.6459 47.8791 21.0573 47.7882 21.1006 47.7787L21.3927 47.7109L24.102 42.8566L26.9523 47.8269L27.243 47.892C27.5724 47.966 27.9119 47.9985 28.2548 47.9985C30.6829 47.9985 33.2675 46.363 33.3915 46.2836L33.7087 46.0808L33.6409 40.4864L38.4754 43.2392L38.8075 43.056C42.3869 41.0813 43.2313 38.3631 43.2652 38.2478L43.3512 37.9602L40.5809 33.3751L45.9094 33.3534L46.0999 33.1866C48.0089 31.5144 48 27.4938 47.9987 27.3235L47.9994 27.3255ZM45.1687 15.4631C45.5713 16.0139 46.5288 17.5918 46.5763 20.1722L41.5507 23.1455L36.891 20.4015L39.5949 15.5981L45.1681 15.4631H45.1687ZM33.5081 29.4787L35.8169 28.1131L38.184 32.03L33.5399 32.049L33.5088 29.4787H33.5081ZM32.1439 28.7101L32.1846 32.0544L28.574 32.0693L26.892 35.0826L23.9096 33.384L21.163 35.0019L19.4417 32.0001L15.7552 32.0191V28.5303L13.0099 26.9511L14.7475 23.9819L12.9693 20.9089L15.764 19.2558L15.7572 15.8633L19.3882 15.9094L21.1671 12.8602L23.9706 14.4571L26.8425 12.8039L28.6648 15.8626L32.2192 15.7765V19.2239L35.0572 20.8954L33.3204 23.9806L35.1155 26.9518L32.1439 28.7101ZM32.2009 33.4111L32.2585 38.1393L28.0698 35.7535L29.3709 33.4226L32.2009 33.4111ZM26.2299 36.267L24.0878 40.1045L21.8373 36.1795L23.9204 34.9523L26.2299 36.2677V36.267ZM19.994 35.6904L15.7545 38.1881V33.3765L18.6583 33.3616L19.994 35.6911V35.6904ZM14.3992 32.0266L10.0255 32.0496L12.3241 28.1219L14.3992 29.3158V32.0266ZM11.8342 26.2754L7.81087 23.9609L11.8017 21.6002L13.178 23.9785L11.8342 26.2754ZM14.4066 18.4831L12.2896 19.7354L10.0072 15.7907L14.4019 15.8464L14.4073 18.4831H14.4066ZM15.7538 14.5066L15.7443 9.77233L19.9886 12.1893L18.6156 14.5425L15.7538 14.5066ZM21.8495 11.6887L23.9902 8.01877L26.1472 11.6385L23.9658 12.8941L21.8495 11.6887ZM28.0169 12.1276L32.2185 9.70924V14.4198L29.4231 14.4876L28.0169 12.1283V12.1276ZM33.5745 15.7439L38.018 15.6361L35.7227 19.713L33.5745 18.4479V15.7432V15.7439ZM34.8892 23.9561L36.2249 21.5832L40.2163 23.9337L36.2818 26.2612L34.8892 23.9561ZM38.4713 6.11055C39.4262 6.7075 41.1441 8.00724 41.5703 9.32597L38.7926 14.2603L33.5745 14.3865V8.92913L38.472 6.11055H38.4713ZM27.8739 1.36203C28.6499 1.3912 30.5365 1.5669 32.2192 2.54509V8.14427L27.323 10.9622L24.7716 6.68037L27.8739 1.36203ZM15.7294 2.51117C16.7215 1.97798 18.701 1.13139 20.0564 1.41562L23.198 6.68783L20.6724 11.0178L15.7416 8.20939L15.7301 2.51049L15.7294 2.51117ZM6.31186 9.40601C6.72321 8.74461 7.81425 7.18642 9.48742 6.20959L14.387 8.99968L14.3985 14.4896L9.21567 14.4238L6.31186 9.40601ZM1.35539 20.2469C1.37233 19.1188 1.60341 16.9277 2.55147 15.6964L8.4289 15.7711L11.1226 20.426L6.46027 23.1842L1.35539 20.2475V20.2469ZM2.61179 32.0883C2.24246 31.4052 1.43332 29.6896 1.41841 27.7421L6.46908 24.7539L11.1484 27.4456L8.44923 32.0578L2.61111 32.0883H2.61179ZM9.59585 41.8166C8.62475 41.2441 6.83638 39.9593 6.23596 38.5259L9.22923 33.4111L14.3992 33.384V38.9872L9.59585 41.8166ZM20.5206 46.4953C19.8422 46.5618 17.9976 46.5841 15.7545 45.3122V39.7626L20.669 36.8673L23.3173 41.4849L20.5206 46.4946V46.4953ZM32.3452 45.3299C31.5632 45.7728 29.4875 46.8297 27.8231 46.6187L24.8739 41.4761L27.407 36.9379L32.2761 39.711L32.3445 45.3305L32.3452 45.3299ZM41.8638 38.1209C41.5859 38.7444 40.6941 40.3602 38.4801 41.683L33.6226 38.9167L33.5555 33.4057L39.0013 33.3833L41.8638 38.1209ZM45.3775 32.0008L39.7637 32.0239L36.9839 27.4232L41.552 24.7206L46.6366 27.7149C46.5891 28.8424 46.3086 30.9805 45.3775 32.0015V32.0008Z" fill="#D8AF6E"/>
</g>
<defs>
<clipPath id="clip0_1648_1947">
<rect width="48" height="48" fill="white"/>
</clipPath>
</defs>
</svg>
