<svg width="88" height="48" viewBox="0 0 88 48" fill="none" xmlns="http://www.w3.org/2000/svg">
<path d="M19.165 12.1829V37.329H26.267V19.1771V12.1829H19.165Z" fill="#D8AF6E"/>
<path d="M34.5217 35.9456V23.9782C34.5217 23.9782 35.0911 19.1772 26.2744 19.1772C26.2744 19.1772 27.5796 19.5024 27.5796 20.5608V32.7704C27.5796 32.7704 26.6007 37.3291 35.667 37.3291C35.667 37.3291 34.5217 37.3291 34.5217 35.9456Z" fill="#D8AF6E"/>
<path d="M47.0805 19.1772H36.082V37.3291H42.9985V19.4897C44.5788 19.6554 44.4125 21.0836 44.4125 21.0836V37.3355H51.7064V23.7997C51.7064 19.2984 47.0805 19.19 47.0805 19.19V19.1772Z" fill="#D8AF6E"/>
<path d="M82.1499 19.1772H71.1514V37.3291H78.0678V19.8595C79.6482 20.0252 79.4818 21.6256 79.4818 21.6256V37.3355H86.7758V23.7997C86.7758 19.2984 82.1499 19.19 82.1499 19.19V19.1772Z" fill="#D8AF6E"/>
<path d="M60.018 15.001C59.0199 13.6047 59.6853 13.05 60.6194 12.8396C61.0161 12.7503 61.432 12.9097 61.6751 13.2412L68.8987 23.0153V12.1829H60.8946C54.1637 12.1829 53.0696 15.5557 53.0952 18.1825C53.1144 19.8593 53.7158 21.4724 54.7075 22.8241C56.8061 25.6868 61.8415 32.6173 62.8268 34.5428C63.3067 35.4736 63.2491 36.0602 62.9996 36.4236C62.75 36.787 62.1678 36.7743 61.8863 36.4236L53.2935 25.8079V37.584H64.5671C72.245 37.584 70.1464 29.6653 68.5724 27.4338C64.7015 21.9633 62.8268 18.9157 60.018 15.0073V15.001Z" fill="#D8AF6E"/>
<path d="M8.1479 15.001C7.14978 13.6047 7.81519 13.05 8.74933 12.8396C9.14602 12.7503 9.5619 12.9097 9.80503 13.2412L17.0286 23.0153V12.1829H9.02445C2.29354 12.1829 1.19945 15.5493 1.22504 18.1761C1.24424 19.8529 1.84567 21.466 2.83739 22.8177C4.936 25.6804 9.97138 32.6109 10.9567 34.5364C11.4366 35.4673 11.379 36.0538 11.1295 36.4172C10.8799 36.7807 10.2977 36.7679 10.0162 36.4172L1.42978 25.8016V37.5776H12.7034C20.3813 37.5776 18.2826 29.6589 16.7087 27.4274C12.8378 21.957 10.9631 18.9093 8.15429 15.001H8.1479Z" fill="#D8AF6E"/>
<path d="M73.7425 17.8637C76.5001 18.4694 78.9059 16.0784 78.298 13.3241C77.9909 11.9406 76.8713 10.8184 75.4764 10.5124C72.7124 9.9003 70.3067 12.2976 70.9209 15.0519C71.228 16.4355 72.3541 17.5576 73.7425 17.8637Z" fill="#D8AF6E"/>
</svg>
