<?xml version="1.0" standalone="no"?><!DOCTYPE svg PUBLIC "-//W3C//DTD SVG 1.1//EN" "http://www.w3.org/Graphics/SVG/1.1/DTD/svg11.dtd"><svg t="1742710429770" class="icon" viewBox="0 0 1024 1024" version="1.1" xmlns="http://www.w3.org/2000/svg" p-id="908" xmlns:xlink="http://www.w3.org/1999/xlink" width="200" height="200"><path d="M481.5284113 632.37785843L338.52313588 489.372583a32 32 0 0 0-45.254834 45.254834l196.10428112 196.10428112a32 32 0 0 0 45.254834 0l196.10428112-196.10428112a32 32 0 0 0-45.254834-45.254834l-139.95811684 139.95811684L544.01025234 315.74486967a32 32 0 1 0-64.02050539 0.30169913l1.56883448 316.36145975z" fill="#6afff3" p-id="909"></path><path d="M210.30110646 210.30110646C376.92940523 43.67280768 647.07059477 43.67280768 813.69889354 210.30110646s166.62829877 436.76948831 0 603.39778708-436.76948831 166.62829877-603.39778708 0S43.67280768 376.92940523 210.30110646 210.30110646z m558.14295309 45.25483399a362.666667 362.666667 0 1 0-512.8881191 512.8881191 362.666667 362.666667 0 0 0 512.8881191-512.8881191z" fill="#6afff3" p-id="910"></path></svg>