<?xml version="1.0" standalone="no"?><!DOCTYPE svg PUBLIC "-//W3C//DTD SVG 1.1//EN" "http://www.w3.org/Graphics/SVG/1.1/DTD/svg11.dtd"><svg t="1742711411368" class="icon" viewBox="0 0 1024 1024" version="1.1" xmlns="http://www.w3.org/2000/svg" p-id="1200" xmlns:xlink="http://www.w3.org/1999/xlink" width="200" height="200"><path d="M542.4715887 391.62214157L685.47686412 534.627417a32 32 0 0 0 45.254834-45.254834l-196.10428112-196.10428112a32 32 0 0 0-45.254834 0l-196.10428112 196.10428112a32 32 0 0 0 45.254834 45.254834l139.95811684-139.95811684L479.98974766 708.25513033a32 32 0 1 0 64.02050539-0.30169913l-1.56883448-316.36145975z" fill="#bf71ff" p-id="1201"></path><path d="M938.666667 512C938.666667 747.648 747.648 938.666667 512 938.666667s-426.666667-191.018667-426.666667-426.666667 191.018667-426.666667 426.666667-426.666667S938.666667 276.352 938.666667 512z m-426.666667 362.66666701a362.666667 362.666667 0 1 0 0-725.33333402 362.666667 362.666667 0 0 0 0 725.33333402z" fill="#bf71ff" p-id="1202"></path></svg>